<svg version="1.0" xmlns="http://www.w3.org/2000/svg"
 width="185.000000pt" height="185.000000pt" viewBox="0 0 185.000000 185.000000"
 preserveAspectRatio="xMidYMid meet">

<g transform="translate(0.000000,185.000000) scale(0.100000,-0.100000)"
fill="#000000" stroke="none">
<path d="M1502 1819 c-70 -112 -211 -442 -257 -601 -9 -32 -20 -60 -24 -62 -4
-3 -18 16 -30 42 -31 65 -102 170 -121 177 -21 8 -40 -23 -40 -65 0 -26 11
-50 41 -90 54 -72 75 -114 120 -240 20 -58 40 -98 42 -90 3 8 15 58 28 110 47
203 135 433 241 637 58 112 67 147 48 184 -14 25 -32 24 -48 -2z"/>
<path d="M353 1785 c-57 -25 -64 -46 -61 -201 l3 -139 25 0 c24 0 25 3 28 73
l3 72 224 0 225 0 0 30 0 30 -225 0 -225 0 0 33 c0 18 5 38 12 45 9 9 73 12
225 12 l213 0 0 30 0 30 -207 0 c-154 -1 -216 -4 -240 -15z"/>
<path d="M968 1760 c-9 -6 -26 -23 -38 -39 -20 -29 -20 -41 -21 -506 0 -527
-2 -505 64 -545 29 -18 51 -20 230 -20 217 0 243 5 282 58 19 26 20 45 22 427
l3 400 -23 -45 c-21 -43 -22 -58 -27 -391 -5 -323 -6 -348 -24 -368 -18 -20
-28 -21 -228 -21 -195 0 -209 1 -228 20 -19 19 -20 33 -20 485 l0 464 22 21
c20 19 34 20 213 20 l192 0 11 25 12 25 -213 0 c-121 0 -219 -5 -229 -10z"/>
<path d="M344 1361 c-46 -20 -54 -47 -54 -188 l0 -133 25 0 25 0 0 124 c0 142
6 156 69 156 56 0 61 -11 61 -127 0 -93 2 -104 22 -123 42 -39 94 -39 136 0
20 19 22 30 22 120 0 110 9 130 61 130 66 0 69 -7 69 -150 l0 -130 25 0 25 0
0 139 0 139 -31 26 c-23 19 -42 26 -74 26 -101 0 -125 -33 -125 -174 0 -85 -2
-95 -20 -101 -10 -3 -28 -1 -40 5 -18 10 -20 20 -20 110 0 89 -2 102 -23 126
-19 22 -34 28 -78 30 -30 2 -64 0 -75 -5z"/>
<path d="M290 863 c0 -76 4 -143 8 -149 19 -28 59 -44 110 -44 46 0 58 4 83
29 28 29 29 32 29 130 0 90 2 101 20 111 14 8 26 8 40 0 18 -10 20 -21 20
-111 0 -98 1 -101 29 -130 25 -24 37 -29 81 -29 53 0 86 12 107 39 8 11 12 61
13 154 l0 137 -25 0 -25 0 0 -128 c0 -86 -4 -132 -12 -140 -16 -16 -90 -16
-106 0 -8 8 -12 48 -12 114 0 111 -4 121 -59 144 -36 15 -68 8 -99 -20 -19
-18 -22 -32 -24 -95 -3 -155 -3 -155 -58 -155 -71 0 -70 -3 -70 146 l0 134
-25 0 -25 0 0 -137z"/>
<path d="M450 347 c0 -57 4 -76 15 -80 8 -4 17 -2 20 3 4 6 1 10 -4 10 -7 0
-11 26 -11 64 0 36 -4 68 -10 71 -6 4 -10 -21 -10 -68z"/>
<path d="M207 403 c-11 -10 -8 -133 3 -133 6 0 10 14 10 30 0 27 3 30 30 30
17 0 30 5 30 10 0 6 -14 10 -31 10 -26 0 -30 3 -27 23 2 16 12 24 38 28 l35 6
-41 2 c-22 0 -44 -2 -47 -6z"/>
<path d="M519 358 c-1 -29 0 -60 1 -68 3 -19 21 -31 34 -23 6 4 5 8 -2 11 -8
2 -12 27 -12 68 0 77 -19 87 -21 12z"/>
<path d="M626 373 c-9 -57 -7 -103 4 -103 6 0 11 11 11 25 1 14 3 30 4 35 1 6
4 22 5 38 2 22 5 19 17 -23 24 -79 55 -81 68 -4 11 62 25 56 25 -10 0 -34 4
-61 10 -61 6 0 10 30 10 70 0 66 -1 70 -23 70 -20 0 -25 -9 -38 -57 l-16 -58
-12 45 c-18 69 -19 70 -39 70 -15 0 -21 -9 -26 -37z"/>
<path d="M1030 340 c0 -56 3 -70 15 -70 10 0 15 10 15 28 l1 27 22 -27 c28
-35 45 -37 23 -3 -15 23 -15 27 0 50 20 31 8 32 -23 3 l-23 -21 0 41 c0 31 -4
42 -15 42 -12 0 -15 -14 -15 -70z"/>
<path d="M1185 388 c3 -13 9 -43 13 -68 6 -35 12 -46 29 -48 18 -3 23 4 32 48
6 28 11 58 11 67 0 32 13 3 24 -54 9 -46 16 -59 32 -61 18 -3 23 5 33 54 13
70 14 84 1 84 -5 0 -12 -17 -15 -37 -16 -94 -17 -99 -25 -78 -4 11 -10 42 -14
68 -7 42 -10 48 -29 45 -18 -2 -24 -12 -31 -60 -5 -32 -13 -58 -17 -58 -4 0
-10 27 -14 60 -5 42 -11 60 -21 60 -10 0 -13 -7 -9 -22z"/>
<path d="M1620 340 c0 -40 4 -70 10 -70 6 0 10 11 10 25 0 14 5 25 10 25 6 0
16 -11 22 -25 6 -14 17 -25 25 -25 10 0 10 6 -4 26 -14 21 -14 29 -4 46 17 28
4 37 -15 10 -23 -33 -34 -27 -34 18 0 22 -4 40 -10 40 -6 0 -10 -30 -10 -70z"/>
<path d="M320 321 c0 -52 16 -69 48 -52 9 4 23 6 30 4 8 -3 12 10 12 46 0 28
-4 51 -10 51 -5 0 -10 -18 -10 -39 0 -26 -5 -41 -16 -45 -29 -11 -34 -6 -34
39 0 25 -4 45 -10 45 -5 0 -10 -22 -10 -49z"/>
<path d="M820 361 c0 -6 16 -11 35 -11 19 0 35 -4 35 -10 0 -5 -13 -10 -29
-10 -33 0 -54 -20 -45 -43 8 -21 32 -29 52 -18 9 4 23 6 30 4 10 -4 12 7 10
43 l-3 49 -42 3 c-26 2 -43 -1 -43 -7z m69 -50 c2 0 -2 -8 -9 -16 -17 -21 -40
-19 -40 4 0 16 22 21 49 12z"/>
<path d="M940 318 c0 -57 17 -65 22 -10 2 30 7 38 26 40 35 5 26 20 -13 19
l-35 -1 0 -48z"/>
<path d="M1404 346 c-10 -42 -1 -70 28 -80 34 -12 68 14 68 54 0 35 -17 50
-57 50 -26 0 -34 -5 -39 -24z m64 -2 c5 -9 7 -27 4 -40 -7 -37 -46 -29 -50 10
-5 40 28 62 46 30z"/>
<path d="M1530 318 c0 -26 5 -48 10 -48 6 0 10 16 10 35 0 29 5 37 25 45 34
13 31 18 -10 17 l-35 -1 0 -48z"/>
<path d="M310 118 c0 -24 4 -49 8 -56 7 -9 62 -12 243 -10 l234 3 3 53 c2 31
-1 52 -7 52 -6 0 -11 -22 -11 -50 l0 -50 -44 0 c-35 0 -46 4 -51 19 -7 23 -27
32 -46 20 -11 -7 -9 -9 9 -9 13 0 22 -6 22 -15 0 -12 -17 -15 -90 -15 -86 0
-90 1 -91 23 l0 22 -9 -23 c-9 -21 -15 -23 -77 -20 l-68 3 -3 48 c-4 58 -22
63 -22 5z"/>
<path d="M1401 155 c-2 -5 -3 -14 -1 -20 1 -5 -1 -24 -5 -42 -5 -30 -9 -33
-40 -33 -35 0 -50 22 -22 33 7 3 4 6 -6 6 -11 1 -21 -8 -24 -19 -5 -17 -14
-20 -69 -20 -59 0 -64 2 -65 23 l0 22 -11 -22 c-10 -21 -18 -23 -90 -23 -74 0
-78 1 -79 23 l0 22 -9 -23 c-12 -28 -18 -28 -30 1 l-9 22 0 -22 c-1 -28 -9
-29 -27 -6 -12 16 -13 15 -14 -15 0 -26 -4 -33 -17 -30 -9 2 -20 14 -25 28 -6
23 -7 23 -5 -5 2 -35 35 -46 57 -20 11 13 48 15 252 15 266 0 252 -4 245 71
-2 24 -5 40 -6 34z"/>
<path d="M1433 105 c0 -33 2 -45 4 -27 2 18 2 45 0 60 -2 15 -4 0 -4 -33z"/>
<path d="M1700 105 c0 -30 5 -55 10 -55 6 0 10 25 10 55 0 30 -4 55 -10 55 -5
0 -10 -25 -10 -55z"/>
<path d="M1536 114 c-8 -21 9 -41 37 -47 12 -2 1 -5 -25 -6 -39 -1 -47 2 -51
19 -4 17 -4 16 -3 -2 1 -21 7 -23 59 -26 64 -3 77 12 27 31 -31 12 -40 31 -17
40 7 4 6 6 -4 6 -9 1 -20 -6 -23 -15z"/>
<path d="M202 101 c-20 -12 -10 -46 14 -49 16 -2 23 3 26 22 3 16 0 27 -9 30
-18 7 -15 7 -31 -3z m24 -38 c-11 -11 -19 6 -11 24 8 17 8 17 12 0 3 -10 2
-21 -1 -24z"/>
<path d="M280 73 c0 -23 -5 -44 -12 -47 -7 -3 -4 -5 7 -3 15 2 21 11 23 36 2
18 -1 38 -7 44 -8 8 -11 -1 -11 -30z"/>
<path d="M1658 93 c20 -8 14 -31 -10 -36 -20 -4 -19 -4 5 -6 23 -1 27 3 27 24
0 17 -5 25 -17 24 -11 0 -13 -3 -5 -6z"/>
</g>
</svg>
